{
  "accessors": [
    {
      "bufferView": 2,
      "componentType": 5126,
      "count": 14298,
      "max": [
        1.25,
        1.2496999502182007,
        0.6878799796104431
      ],
      "min": [
        -1.2373100519180298,
        -1.2496999502182007,
        -0.6878799796104431
      ],
      "type": "VEC3"
    },
    {
      "bufferView": 2,
      "byteOffset": 171576,
      "componentType": 5126,
      "count": 14298,
      "max": [
        0.9999457597732544,
        0.9999655485153198,
        0.9999494552612305
      ],
      "min": [
        -0.9999703764915466,
        -0.9996844530105591,
        -0.9996015429496765
      ],
      "type": "VEC3"
    },
    {
      "bufferView": 1,
      "componentType": 5126,
      "count": 14298,
      "max": [
        0.9969499707221985,
        0.9962000250816345
      ],
      "min": [
        0.5022500157356262,
        0.5011500120162964
      ],
      "type": "VEC2"
    },
    {
      "bufferView": 0,
      "componentType": 5125,
      "count": 77841,
      "type": "SCALAR"
    }
  ],
  "asset": {
    "extras": {
      "author": "Slovakia (https://sketchfab.com/Slovakia)",
      "license": "CC-BY-4.0 (http://creativecommons.org/licenses/by/4.0/)",
      "source": "https://sketchfab.com/3d-models/tiger-free-44cdb7d51c794e089f96774f6280a5d0",
      "title": "Tiger Free"
    },
    "generator": "Sketchfab-12.30.0",
    "version": "2.0"
  },
  "bufferViews": [
    {
      "buffer": 0,
      "byteLength": 311364,
      "name": "floatBufferViews",
      "target": 34963
    },
    {
      "buffer": 0,
      "byteLength": 114384,
      "byteOffset": 311364,
      "byteStride": 8,
      "name": "floatBufferViews",
      "target": 34962
    },
    {
      "buffer": 0,
      "byteLength": 343152,
      "byteOffset": 425748,
      "byteStride": 12,
      "name": "floatBufferViews",
      "target": 34962
    }
  ],
  "buffers": [
    {
      "byteLength": 768900,
      "uri": "scene.bin"
    }
  ],
  "images": [
    {
      "uri": "textures/mat_0_007b6df4_jpg_baseColor.jpeg"
    }
  ],
  "materials": [
    {
      "doubleSided": true,
      "name": "mat_0_007b6df4_jpg",
      "pbrMetallicRoughness": {
        "baseColorTexture": {
          "index": 0
        },
        "metallicFactor": 0.0
      }
    }
  ],
  "meshes": [
    {
      "name": "Object_0",
      "primitives": [
        {
          "attributes": {
            "NORMAL": 1,
            "POSITION": 0,
            "TEXCOORD_0": 2
          },
          "indices": 3,
          "material": 0,
          "mode": 4
        }
      ]
    }
  ],
  "nodes": [
    {
      "children": [
        1
      ],
      "matrix": [
        -1.0,
        6.290011496532519e-32,
        -2.832769343193999e-16,
        0.0,
        -2.832769343193999e-16,
        -2.220446049250313e-16,
        1.0,
        0.0,
        0.0,
        1.0,
        2.220446049250313e-16,
        0.0,
        8.344650268554688e-07,
        2.9116757561866574e-22,
        -1.3113021850585938e-06,
        1.0
      ],
      "name": "Sketchfab_model"
    },
    {
      "children": [
        2
      ],
      "name": "model.obj.cleaner.materialmerger.gles"
    },
    {
      "mesh": 0,
      "name": "Object_2"
    }
  ],
  "samplers": [
    {
      "magFilter": 9729,
      "minFilter": 9987,
      "wrapS": 10497,
      "wrapT": 10497
    }
  ],
  "scene": 0,
  "scenes": [
    {
      "name": "Sketchfab_Scene",
      "nodes": [
        0
      ]
    }
  ],
  "textures": [
    {
      "sampler": 0,
      "source": 0
    }
  ]
}
